<svg width="16" height="16" viewBox="0 0 16 16" fill="none" xmlns="http://www.w3.org/2000/svg">
<g clip-path="url(#clip0)">
<path d="M4 15H11L7.5 8.78003L4 15Z" fill="white"/>
<path d="M11.34 13H16L12.5 8.25L10.25 11L11.34 13Z" fill="white"/>
<path opacity="0.5" d="M5.68001 7.41003L4.76001 6.48999C4.76001 6.48999 6.23001 4.69996 7.10001 3.82996C7.97001 2.95996 11.69 0.0799561 11.69 0.0799561C11.7161 0.0533482 11.7472 0.032253 11.7815 0.0178223C11.8159 0.0033915 11.8528 -0.00402832 11.89 -0.00402832C11.9273 -0.00402832 11.9641 0.0033915 11.9985 0.0178223C12.0328 0.032253 12.0639 0.0533482 12.09 0.0799561C12.142 0.13554 12.171 0.208903 12.171 0.285034C12.171 0.361166 12.142 0.434406 12.09 0.48999C12.09 0.48999 9.19001 4.22998 8.32001 5.09998C7.45001 5.96998 5.68001 7.41003 5.68001 7.41003Z" fill="white"/>
<path d="M4.87 7.65008L4.3 7.01007C4.3 7.01007 2.77 6.75012 2.21 8.81012C1.84 10.1301 0 11.0001 0 11.0001H2.28C2.78844 10.9901 3.28449 10.8414 3.71453 10.57C4.14458 10.2986 4.49226 9.91471 4.72 9.46002C4.8782 9.18853 4.97376 8.88523 4.99971 8.57208C5.02566 8.25893 4.98135 7.94391 4.87 7.65008Z" fill="white"/>
</g>
<defs>
<clipPath id="clip0">
<rect width="16" height="16" fill="white"/>
</clipPath>
</defs>
</svg>
