<svg width="64" height="64" viewBox="0 0 64 64" fill="none" xmlns="http://www.w3.org/2000/svg">
<path d="M21.15 27.28L17.89 24.02C17.89 24.02 23.09 17.67 26.17 14.58C29.25 11.49 42.45 1.30005 42.45 1.30005C42.5431 1.2048 42.6544 1.12906 42.7771 1.07739C42.8999 1.02572 43.0318 0.999146 43.165 0.999146C43.2982 0.999146 43.4301 1.02572 43.5529 1.07739C43.6757 1.12906 43.7869 1.2048 43.88 1.30005C43.9737 1.39301 44.0481 1.50351 44.0989 1.62537C44.1497 1.74723 44.1758 1.878 44.1758 2.01001C44.1758 2.14202 44.1497 2.27267 44.0989 2.39453C44.0481 2.51639 43.9737 2.62701 43.88 2.71997C43.88 2.71997 33.59 16 30.51 19.09C27.43 22.18 21.15 27.28 21.15 27.28Z" fill="#666666"/>
<path d="M18.26 28.14L16.26 25.8499C16.26 25.8499 10.86 24.9399 8.84001 32.2299C7.55001 36.8999 1.02002 39.9999 1.02002 39.9999H9.11002C10.9123 39.9636 12.6705 39.4359 14.1948 38.4737C15.7192 37.5115 16.9519 36.1514 17.76 34.54C19.61 30.83 18.26 28.14 18.26 28.14Z" fill="#B3B3B3"/>
<path opacity="0.7" d="M12.48 58H40.48L26.48 33.11L12.48 58Z" fill="#666666"/>
<path d="M12.48 58H40.48L26.48 33.11L12.48 58Z" fill="url(#paint0_linear)"/>
<path opacity="0.7" d="M36.91 49.46L39.24 53H61.09L48.42 30.82L36.91 49.46Z" fill="#666666"/>
<path d="M36.91 49.46L39.24 53H61.09L48.42 30.82L36.91 49.46Z" fill="url(#paint1_linear)"/>
<defs>
<linearGradient id="paint0_linear" x1="26.06" y1="33" x2="26.06" y2="60.39" gradientUnits="userSpaceOnUse">
<stop stop-color="white"/>
<stop offset="1" stop-color="#999999" stop-opacity="0.05"/>
</linearGradient>
<linearGradient id="paint1_linear" x1="49" y1="30.82" x2="49" y2="53" gradientUnits="userSpaceOnUse">
<stop stop-color="white"/>
<stop offset="1" stop-color="#999999" stop-opacity="0.05"/>
</linearGradient>
</defs>
</svg>
