<svg width="64" height="64" viewBox="0 0 64 64" fill="none" xmlns="http://www.w3.org/2000/svg">
<path opacity="0.8" d="M57.34 9.43001C52.42 9.43001 45.34 1.76001 45.34 1.76001C45.34 1.76001 44.48 2.54002 43.21 3.55002C41.4723 4.92769 39.6301 6.16809 37.7 7.26001L37.56 7.33002C37.08 7.59002 36.56 7.82001 36.13 8.03001C35.6749 8.23864 35.2073 8.41899 34.73 8.57002L34.42 8.67001C33.2088 9.0698 31.9012 9.0698 30.69 8.67001L30.38 8.57002C29.9 8.41736 29.4292 8.23705 28.97 8.03001C28.5 7.82001 28.03 7.59002 27.55 7.33002L27.41 7.26001C25.4799 6.16809 23.6377 4.92769 21.9 3.55002C20.63 2.55002 19.76 1.76001 19.76 1.76001C19.76 1.76001 12.65 9.43001 7.76001 9.43001C6.87682 9.47301 5.99242 9.37513 5.14001 9.14001V57.46C6.00498 57.6197 6.88084 57.7133 7.76001 57.74C12.69 57.74 19.76 50.08 19.76 50.08C19.76 50.08 20.63 50.85 21.9 51.86C23.6353 53.241 25.4778 54.4816 27.41 55.57L27.55 55.65C28.03 55.91 28.55 56.13 28.97 56.34C29.39 56.55 29.92 56.74 30.38 56.89L30.69 56.99C31.9033 57.3768 33.2068 57.3768 34.42 56.99L34.73 56.89C35.2059 56.7311 35.6732 56.5475 36.13 56.34C36.6 56.13 37.08 55.91 37.56 55.65L37.7 55.57C39.6323 54.4816 41.4748 53.241 43.21 51.86C44.48 50.86 45.34 50.08 45.34 50.08C45.34 50.08 52.45 57.74 57.34 57.74C57.7063 57.704 58.0702 57.6473 58.43 57.57C58.72 57.09 59 56.51 59 56.51V9.14001C58.4545 9.27718 57.8997 9.3741 57.34 9.43001Z" fill="#808080"/>
<path opacity="0.7" d="M57.34 9.43001C52.42 9.43001 45.34 1.76001 45.34 1.76001C45.34 1.76001 44.48 2.54002 43.21 3.55002C41.4723 4.92769 39.6301 6.16809 37.7 7.26001L37.56 7.33002C37.08 7.59002 36.56 7.82001 36.13 8.03001C35.6749 8.23864 35.2073 8.41899 34.73 8.57002L34.42 8.67001C33.2088 9.0698 31.9012 9.0698 30.69 8.67001L30.38 8.57002C29.9 8.41736 29.4292 8.23705 28.97 8.03001C28.5 7.82001 28.03 7.59002 27.55 7.33002L27.41 7.26001C25.4799 6.16809 23.6377 4.92769 21.9 3.55002C20.63 2.55002 19.76 1.76001 19.76 1.76001C19.76 1.76001 12.65 9.43001 7.76001 9.43001C6.87682 9.47301 5.99242 9.37513 5.14001 9.14001V57.46C6.00498 57.6197 6.88084 57.7133 7.76001 57.74C12.69 57.74 19.76 50.08 19.76 50.08C19.76 50.08 20.63 50.85 21.9 51.86C23.6353 53.241 25.4778 54.4816 27.41 55.57L27.55 55.65C28.03 55.91 28.55 56.13 28.97 56.34C29.39 56.55 29.92 56.74 30.38 56.89L30.69 56.99C31.9033 57.3768 33.2068 57.3768 34.42 56.99L34.73 56.89C35.2059 56.7311 35.6732 56.5475 36.13 56.34C36.6 56.13 37.08 55.91 37.56 55.65L37.7 55.57C39.6323 54.4816 41.4748 53.241 43.21 51.86C44.48 50.86 45.34 50.08 45.34 50.08C45.34 50.08 52.45 57.74 57.34 57.74C57.7063 57.704 58.0702 57.6473 58.43 57.57C58.72 57.09 59 56.51 59 56.51V9.14001C58.4545 9.27718 57.8997 9.3741 57.34 9.43001Z" fill="url(#paint0_linear)"/>
<path d="M5.13 57.48C5.9519 57.6318 6.78446 57.7188 7.62 57.74C12.55 57.74 19.62 50.08 19.62 50.08C19.62 50.08 20.49 50.85 21.76 51.86C23.4952 53.241 25.3377 54.4816 27.27 55.57L27.41 55.65C27.89 55.91 28.41 56.13 28.83 56.34C29.25 56.55 29.78 56.74 30.24 56.89L30.55 56.99C31.7633 57.3768 33.0667 57.3768 34.28 56.99L34.59 56.89C35.0659 56.7311 35.5332 56.5475 35.99 56.34C36.46 56.13 36.94 55.91 37.42 55.65L37.56 55.57C39.4923 54.4816 41.3348 53.241 43.07 51.86C44.34 50.86 45.2 50.08 45.2 50.08C45.2 50.08 52.31 57.74 57.2 57.74C57.6337 57.6954 58.0645 57.6253 58.49 57.53C58.6323 57.204 58.7558 56.8701 58.86 56.53V42.3C58.86 42.3 57.48 42.58 57.2 42.58C52.28 42.58 45.2 34.92 45.2 34.92C45.2 34.92 44.34 35.69 43.07 36.7C41.3327 38.0811 39.4904 39.3249 37.56 40.42L37.42 40.49C36.94 40.75 36.42 40.98 35.99 41.19C35.5331 41.3943 35.0658 41.5746 34.59 41.73L34.28 41.83C33.0667 42.2168 31.7633 42.2168 30.55 41.83L30.24 41.73C29.78 41.59 29.31 41.39 28.83 41.19C28.35 40.99 27.89 40.75 27.41 40.49L27.27 40.42C25.3399 39.3281 23.4977 38.0877 21.76 36.71C20.49 35.71 19.62 34.92 19.62 34.92C19.62 34.92 12.51 42.58 7.62 42.58C6.74082 42.5533 5.86496 42.4597 5 42.3V56.51C5.00982 56.8369 5.05339 57.162 5.13 57.48Z" fill="url(#paint1_linear)"/>
<path d="M5 31.87H59V18.25C58.73 18.02 58.57 17.86 58.57 17.86C58.57 17.86 57.7 18.64 56.43 19.65C54.6948 21.031 52.8523 22.2716 50.92 23.36L50.78 23.44C50.3 23.7 49.83 23.92 49.35 24.13C48.8932 24.3375 48.4259 24.5211 47.95 24.68L47.64 24.78C46.4268 25.1668 45.1233 25.1668 43.91 24.78L43.6 24.68C43.1241 24.5211 42.6568 24.3375 42.2 24.13C41.73 23.92 41.25 23.7 40.77 23.44L40.63 23.36C38.7008 22.2717 36.8617 21.0311 35.13 19.65C34.22 18.93 33.53 18.34 33.2 18.05L33.02 17.86L32.84 18.05C32.52 18.34 31.84 18.93 30.92 19.65C29.1848 21.031 27.3423 22.2716 25.41 23.36L25.27 23.44C24.79 23.7 24.32 23.92 23.85 24.13C23.38 24.34 22.9 24.53 22.44 24.68L22.13 24.78C20.9168 25.1668 19.6132 25.1668 18.4 24.78L18.09 24.68C17.6141 24.5211 17.1468 24.3375 16.69 24.13C16.22 23.92 15.69 23.7 15.27 23.44L15.12 23.36C13.1923 22.2693 11.3533 21.0288 9.62 19.65C8.35 18.65 7.48 17.86 7.48 17.86C7.48 17.86 6.55 18.86 5.14 20.14L5 31.87Z" fill="url(#paint2_linear)"/>
<defs>
<linearGradient id="paint0_linear" x1="32" y1="1.76001" x2="32" y2="57.74" gradientUnits="userSpaceOnUse">
<stop stop-color="white"/>
<stop offset="0.22" stop-color="white" stop-opacity="0.05"/>
</linearGradient>
<linearGradient id="paint1_linear" x1="32" y1="34.92" x2="32" y2="57.74" gradientUnits="userSpaceOnUse">
<stop stop-color="white"/>
<stop offset="1" stop-color="#808080" stop-opacity="0"/>
</linearGradient>
<linearGradient id="paint2_linear" x1="32" y1="17.86" x2="32" y2="31.87" gradientUnits="userSpaceOnUse">
<stop stop-color="white"/>
<stop offset="1" stop-color="#C4C4C4" stop-opacity="0"/>
</linearGradient>
</defs>
</svg>
