<svg width="64" height="64" viewBox="0 0 64 64" fill="none" xmlns="http://www.w3.org/2000/svg">
<path d="M48.1 41.64C50.9684 42.2965 53.6073 43.7127 55.74 45.74C56.1137 46.1006 56.4216 46.5236 56.65 46.99C56.8705 47.4927 56.9366 48.0496 56.84 48.59C56.6691 49.5757 56.2138 50.4898 55.53 51.22C54.2852 52.543 52.8411 53.6632 51.25 54.54C44.9303 57.8048 37.8793 59.3954 30.77 59.16C23.77 58.94 16.67 57.75 10.34 54.45C8.70633 53.6333 7.23554 52.5251 6.00002 51.18C5.65964 50.8264 5.38229 50.4171 5.18002 49.97C4.91802 49.5185 4.76722 49.0112 4.74003 48.49C4.71224 47.9508 4.80092 47.4119 5.00002 46.91C5.26833 46.484 5.56923 46.0795 5.90002 45.7C8.50002 43.29 10.15 42.65 13.37 41.64C18.8486 40.4139 24.4369 39.7438 30.05 39.64C29.62 45.22 33.14 46.09 34.57 46.15C36 46.21 39.57 45.79 39.01 40.05C42.0708 40.386 45.1069 40.9171 48.1 41.64Z" fill="#4D4D4D"/>
<path opacity="0.4" d="M48.1 41.64C50.9684 42.2965 53.6073 43.7127 55.74 45.74C56.1137 46.1006 56.4216 46.5236 56.65 46.99C56.8705 47.4927 56.9366 48.0496 56.84 48.59C56.6691 49.5757 56.2138 50.4898 55.53 51.22C54.2852 52.543 52.8411 53.6632 51.25 54.54C44.9303 57.8048 37.8793 59.3954 30.77 59.16C23.77 58.94 16.67 57.75 10.34 54.45C8.70633 53.6333 7.23554 52.5251 6.00002 51.18C5.65964 50.8264 5.38229 50.4171 5.18002 49.97C4.91802 49.5185 4.76722 49.0112 4.74003 48.49C4.71224 47.9508 4.80092 47.4119 5.00002 46.91C5.26833 46.484 5.56923 46.0795 5.90002 45.7C8.50002 43.29 10.15 42.65 13.37 41.64C18.8486 40.4139 24.4369 39.7438 30.05 39.64C29.62 45.22 33.14 46.09 34.57 46.15C36 46.21 39.57 45.79 39.01 40.05C42.0708 40.386 45.1069 40.9171 48.1 41.64Z" fill="url(#paint0_linear)"/>
<path fill-rule="evenodd" clip-rule="evenodd" d="M31.81 53.15C20.02 53.15 9.51999 48.42 12.76 45.39C14.91 43.39 21.51 37.85 30.9 37.85C31.13 39.8 31.15 42.6 31.15 42.6C31.15 42.6 33.52 44.98 38.41 42.85C38.03 41.1 37.41 39.73 37.15 37.97C41.66 39.73 46.06 43.4 48.85 45.77C52 48.41 42.58 53.15 31.81 53.15Z" fill="#B3B3B3"/>
<path fill-rule="evenodd" clip-rule="evenodd" d="M31.81 53.15C20.02 53.15 9.51999 48.42 12.76 45.39C14.91 43.39 21.51 37.85 30.9 37.85C31.13 39.8 31.15 42.6 31.15 42.6C31.15 42.6 33.52 44.98 38.41 42.85C38.03 41.1 37.41 39.73 37.15 37.97C41.66 39.73 46.06 43.4 48.85 45.77C52 48.41 42.58 53.15 31.81 53.15Z" fill="url(#paint1_linear)"/>
<path fill-rule="evenodd" clip-rule="evenodd" d="M35.53 16.07C35.6 22.19 36.53 37.72 38.26 42.67C33.45 45.39 31.15 42.48 31.15 42.48C31.15 42.48 30.96 28.35 31.15 20.7C32.14 20 34.63 16.67 35.53 16.07Z" fill="#808080"/>
<path fill-rule="evenodd" clip-rule="evenodd" d="M25.45 2.16998C25.45 2.16998 30.29 2.17001 32.89 3.32001C33.73 3.69001 35.69 5.32 36.89 9.12C39.2138 7.41862 42.105 6.6806 44.96 7.06C50.3 7.95 52.33 12.63 53.87 13.46C52.33 12.62 46.97 13.87 45.39 13.85C42.54 13.85 40.17 13.93 38.16 12.77C38.71 13.27 41.71 15.77 42.84 18.37C43.97 20.97 42.93 28.55 42.93 28.55C42.93 28.55 37.75 23 36.8 20.01C36.2 18.09 35.54 15.15 35.54 15.15C35.54 15.15 34.85 16.99 34 18.72C33.86 19.01 33.6 20.45 30.34 22.86C31.34 22.11 24.91 26.65 24.91 26.65C24.91 26.65 25.68 23.65 26.2 21.22C26.31 20.72 28.1 16.56 29.45 15.22C30.2641 14.4528 31.1479 13.7631 32.09 13.16C32.09 13.16 26.2 14.24 24.41 14.07C21.3359 13.6551 18.4049 12.5136 15.86 10.74C17.41 10.02 21.01 8.38001 24.52 8.64001C26.59 8.79001 29.04 9.59002 32.83 10.02C32.83 10.02 31.15 8.59999 29.53 7.17999C28.0409 5.6194 26.6767 3.94424 25.45 2.16998Z" fill="#E6E6E6"/>
<path d="M47.5786 42.5C50.3288 43.0614 52.859 44.2722 54.9039 46.0057C55.2621 46.3141 55.5574 46.6758 55.7764 47.0745C55.9878 47.5044 56.0512 47.9806 55.9586 48.4426C55.7947 49.2854 55.3581 50.067 54.7025 50.6914C53.509 51.8227 52.1243 52.7805 50.5988 53.5302C44.5395 56.3217 37.7789 57.6818 30.9625 57.4805C24.2508 57.2924 17.4433 56.2749 11.3741 53.4532C9.80769 52.7549 8.39749 51.8074 7.21287 50.6572C6.8865 50.3549 6.62058 50.0049 6.42664 49.6226C6.17544 49.2365 6.03085 48.8028 6.00478 48.3571C5.97814 47.896 6.06316 47.4352 6.25406 47.0061C6.51132 46.6419 6.79982 46.296 7.11698 45.9715C9.60988 43.9108 11.1919 43.3636 14.2793 42.5C11.585 44.0476 10.0605 44.535 8.03744 46.724C6.95399 47.6902 7.40462 48.8018 8.42096 49.7252C9.54428 50.6512 10.8428 51.3923 12.2562 51.9141C18.2084 54.0916 24.5769 55.221 31.0104 55.2403C37.4191 55.4262 43.7926 54.3245 49.6592 52.0168C51.0581 51.4377 52.351 50.6738 53.4944 49.7508C54.5491 48.8103 55.0285 47.6902 54.0218 46.7838C51.8932 44.6547 50.7427 44.0049 47.5786 42.5Z" fill="#B3B3B3"/>
<path d="M47.5786 42.5C50.3288 43.0614 52.859 44.2722 54.9039 46.0057C55.2621 46.3141 55.5574 46.6758 55.7764 47.0745C55.9878 47.5044 56.0512 47.9806 55.9586 48.4426C55.7947 49.2854 55.3581 50.067 54.7025 50.6914C53.509 51.8227 52.1243 52.7805 50.5988 53.5302C44.5395 56.3217 37.7789 57.6818 30.9625 57.4805C24.2508 57.2924 17.4433 56.2749 11.3741 53.4532C9.80769 52.7549 8.39749 51.8074 7.21287 50.6572C6.8865 50.3549 6.62058 50.0049 6.42664 49.6226C6.17544 49.2365 6.03085 48.8028 6.00478 48.3571C5.97814 47.896 6.06316 47.4352 6.25406 47.0061C6.51132 46.6419 6.79982 46.296 7.11698 45.9715C9.60988 43.9108 11.1919 43.3636 14.2793 42.5C11.585 44.0476 10.0605 44.535 8.03744 46.724C6.95399 47.6902 7.40462 48.8018 8.42096 49.7252C9.54428 50.6512 10.8428 51.3923 12.2562 51.9141C18.2084 54.0916 24.5769 55.221 31.0104 55.2403C37.4191 55.4262 43.7926 54.3245 49.6592 52.0168C51.0581 51.4377 52.351 50.6738 53.4944 49.7508C54.5491 48.8103 55.0285 47.6902 54.0218 46.7838C51.8932 44.6547 50.7427 44.0049 47.5786 42.5Z" fill="url(#paint2_linear)"/>
<defs>
<linearGradient id="paint0_linear" x1="30.8" y1="59.17" x2="30.8" y2="39.67" gradientUnits="userSpaceOnUse">
<stop stop-color="#CCCCCC"/>
<stop offset="1" stop-color="#CCCCCC" stop-opacity="0.05"/>
</linearGradient>
<linearGradient id="paint1_linear" x1="30.81" y1="37.85" x2="30.81" y2="53.15" gradientUnits="userSpaceOnUse">
<stop stop-color="white"/>
<stop offset="1" stop-color="#B3B3B3" stop-opacity="0.05"/>
</linearGradient>
<linearGradient id="paint2_linear" x1="30.9912" y1="57.4891" x2="30.9912" y2="42.5" gradientUnits="userSpaceOnUse">
<stop stop-color="white"/>
<stop offset="1" stop-color="#B3B3B3" stop-opacity="0"/>
</linearGradient>
</defs>
</svg>
