<svg width="16" height="16" viewBox="0 0 16 16" fill="none" xmlns="http://www.w3.org/2000/svg">
<g clip-path="url(#clip0)">
<path d="M8.27993 14.09C5.11993 14.09 2.27993 12.82 3.17993 12.01C4.49439 10.7615 6.22741 10.0483 8.03993 10.01C8.09993 10.53 8.10993 11.28 8.10993 11.28C8.10993 11.28 8.73993 11.92 10.0499 11.35C9.94993 10.88 9.77993 10.51 9.71993 10.04C10.8659 10.5691 11.922 11.2743 12.8499 12.13C13.6899 12.82 11.1699 14.09 8.27993 14.09Z" fill="white"/>
<path opacity="0.5" d="M9.33009 3.85999C9.33323 6.34266 9.58785 8.81865 10.0901 11.25C8.75009 12.01 8.09009 11.25 8.09009 11.25C8.09009 11.25 8.09009 7.32001 8.09009 5.20001C8.39009 5.00001 9.08009 3.99999 9.33009 3.85999Z" fill="white"/>
<path d="M6.53011 0C7.22904 0.00156565 7.92365 0.109474 8.59011 0.320007C9.16159 0.687522 9.56428 1.26637 9.71011 1.92999C10.3567 1.46116 11.1581 1.25724 11.9501 1.35999C13.4401 1.60999 13.9501 2.91001 14.4301 3.14001C14.0001 2.91001 12.5101 3.25 12.0701 3.25C11.3888 3.32296 10.7001 3.21967 10.0701 2.95001C10.5991 3.37824 11.0405 3.90452 11.3701 4.5C11.5175 5.43757 11.5175 6.39244 11.3701 7.33002C10.6907 6.62735 10.1179 5.82886 9.67011 4.96002C9.50011 4.43002 9.32011 3.60999 9.32011 3.60999C9.32011 3.60999 9.13011 4.11999 8.89011 4.60999C8.89011 4.68999 8.78011 5.09001 7.89011 5.76001C8.17011 5.55001 6.39011 6.76001 6.39011 6.76001C6.39011 6.76001 6.60011 5.92 6.74011 5.25C6.95517 4.64958 7.26216 4.08622 7.65012 3.58002C7.8753 3.36488 8.11965 3.17073 8.38011 3C7.67767 3.13842 6.96552 3.22201 6.25011 3.25C5.39544 3.13488 4.58001 2.81968 3.87012 2.33002C4.61509 1.94561 5.44182 1.74663 6.28011 1.75C6.85011 1.75 7.53011 2.01 8.59011 2.13C8.59011 2.13 8.12011 1.74003 7.67011 1.34003C7.25699 0.922629 6.87591 0.474668 6.53011 0Z" fill="white"/>
<path opacity="0.5" d="M12.85 11.09C13.6523 11.2779 14.3906 11.6746 14.99 12.24C15.0922 12.342 15.1767 12.4603 15.24 12.59C15.299 12.7322 15.3197 12.8873 15.3 13.04C15.2472 13.3131 15.1191 13.566 14.93 13.77C14.584 14.1441 14.1786 14.4583 13.73 14.7C11.9635 15.6188 9.99 16.0665 8 16C6.01846 15.9946 4.06353 15.5434 2.28 14.68C1.81965 14.4519 1.4059 14.1399 1.06 13.76C0.964372 13.6607 0.886572 13.5457 0.830002 13.42C0.757676 13.2949 0.716514 13.1543 0.71 13.01C0.699948 12.8599 0.723875 12.7095 0.779999 12.57C0.856097 12.449 0.94313 12.3351 1.04 12.23C1.61868 11.6651 2.34181 11.2708 3.13 11.09C2.44239 11.4369 1.82258 11.9042 1.3 12.47C0.990004 12.79 1.12 13.16 1.42 13.47C1.74657 13.7734 2.12624 14.0141 2.54 14.18C4.27768 14.8986 6.13958 15.269 8.02 15.27C9.88846 15.3466 11.7504 15.0049 13.47 14.27C13.8772 14.0789 14.2545 13.8297 14.59 13.53C14.9 13.22 15.04 12.85 14.74 12.53C14.2236 11.9169 13.5782 11.4252 12.85 11.09Z" fill="white"/>
</g>
<defs>
<clipPath id="clip0">
<rect width="16" height="16" fill="white"/>
</clipPath>
</defs>
</svg>
