<svg width="64" height="64" viewBox="0 0 64 64" fill="none" xmlns="http://www.w3.org/2000/svg">
<path d="M48.73 7.12L48.18 6.81006C44.64 9.42006 40.92 9.42006 37.7 5.81006C36.9483 6.67169 36.0247 7.36646 34.9885 7.84998C33.9523 8.33349 32.8263 8.59495 31.6831 8.61755C30.5399 8.64015 29.4045 8.42351 28.35 7.98132C27.2955 7.53914 26.3452 6.8813 25.56 6.05005C21.84 9.88005 18.31 9.05 14.56 6.5C14.4 6.58 14.3 7.33003 14.15 7.41003C13.06 12.35 3.97998 47.79 3.97998 47.79V56H59.98V47.8199C59.98 47.8199 49.64 11.25 48.73 7.12Z" fill="#808080"/>
<path opacity="0.6" d="M48.73 7.12L48.18 6.81006C44.64 9.42006 40.92 9.42006 37.7 5.81006C36.9483 6.67169 36.0247 7.36646 34.9885 7.84998C33.9523 8.33349 32.8263 8.59495 31.6831 8.61755C30.5399 8.64015 29.4045 8.42351 28.35 7.98132C27.2955 7.53914 26.3452 6.8813 25.56 6.05005C21.84 9.88005 18.31 9.05 14.56 6.5C14.4 6.58 14.3 7.33003 14.15 7.41003C13.06 12.35 3.97998 47.79 3.97998 47.79V56H59.98V47.8199C59.98 47.8199 49.64 11.25 48.73 7.12Z" fill="url(#paint0_linear)"/>
<path d="M60 47.8199L59.91 47.5C58.388 46.792 56.9147 45.9835 55.5 45.08C54.74 44.59 54.15 44.19 53.88 43.99L53.73 43.87H53.67L53.52 43.99C53.25 44.19 52.67 44.59 51.91 45.08C50.428 46.0282 48.8809 46.8703 47.28 47.6L47.16 47.65C46.76 47.83 46.36 47.98 45.96 48.13C45.574 48.2728 45.18 48.393 44.78 48.49L44.52 48.5601C44.0096 48.6874 43.486 48.7544 42.96 48.76C42.4307 48.7539 41.9039 48.6868 41.39 48.5601L41.13 48.49C40.7308 48.3902 40.337 48.27 39.95 48.13C39.56 47.98 39.16 47.83 38.76 47.65L38.64 47.6C37.0392 46.8703 35.4919 46.0282 34.01 45.08C33.01 44.42 32.28 43.91 32.23 43.88C32.15 43.94 31.47 44.4299 30.47 45.0699C28.988 46.0181 27.4409 46.8603 25.84 47.59L25.72 47.64C25.32 47.82 24.92 47.97 24.53 48.12C24.1431 48.26 23.7492 48.3801 23.35 48.48L23.09 48.55C22.5761 48.6768 22.0493 48.7439 21.52 48.75C20.994 48.7444 20.4704 48.6774 19.96 48.55L19.7 48.48C19.3 48.3829 18.906 48.2628 18.52 48.12C18.12 47.97 17.72 47.82 17.32 47.64L17.2 47.59C15.6023 46.8604 14.0584 46.0182 12.58 45.0699C11.82 44.5799 11.23 44.18 10.96 43.98L10.81 43.86H10.75L10.6 43.98C10.33 44.18 9.74999 44.5799 8.98999 45.0699C7.50805 46.0181 5.96085 46.8603 4.35999 47.59L4.23999 47.64L4.09998 47.7V47.8101V56H60.1L60 47.8199Z" fill="url(#paint1_linear)"/>
<path d="M42.34 23.25H53.1C52.34 20.54 51.62 17.94 50.98 15.62C50.11 15.2 49.3 14.75 48.66 14.38L47.51 13.66L47.41 13.5699L47.3 13.66C47.11 13.78 46.7 14.05 46.16 14.37C45.1096 15.0011 44.0171 15.5592 42.89 16.04H42.8L41.95 16.35C41.67 16.44 41.39 16.53 41.12 16.59H40.94C40.2102 16.7634 39.4498 16.7634 38.72 16.59H38.54C38.26 16.53 37.98 16.44 37.7 16.35L36.86 16.04H36.77C35.6423 15.5644 34.5496 15.0096 33.5 14.38C32.77 13.94 32.27 13.6 32.24 13.58C32.18 13.58 31.7 13.94 30.99 14.36C29.9397 14.9911 28.8471 15.5492 27.72 16.03H27.63L26.79 16.34C26.5 16.43 26.22 16.52 25.95 16.58H25.77C25.0402 16.7534 24.2798 16.7534 23.55 16.58H23.37C23.09 16.52 22.81 16.43 22.53 16.34L21.69 16.03H21.6C20.4732 15.5523 19.3807 14.9976 18.33 14.37L17.18 13.65L17.08 13.5601L16.97 13.65C16.78 13.77 16.37 14.04 15.83 14.36C14.7797 14.9911 13.6871 15.5492 12.56 16.03H12.47L12.16 16.14C11.62 18.31 11.02 20.71 10.39 23.2H20.57C27.6811 21.127 35.2385 21.1444 42.34 23.25Z" fill="url(#paint2_linear)"/>
<path opacity="0.25" d="M43.73 23.74C56.73 28.81 51.41 40.63 31.44 40.63C12.44 40.63 6.43997 28.81 19.1 23.74C26.17 20.9 36.8 21 43.73 23.74Z" fill="#1C1C1C"/>
<path d="M43.73 23.74C56.73 28.81 51.41 40.63 31.44 40.63C12.44 40.63 6.43997 28.81 19.1 23.74C26.17 20.9 36.8 21 43.73 23.74Z" fill="url(#paint3_linear)"/>
<path d="M43.73 31.73C36.8 29.02 26.17 28.88 19.1 31.73C17.2574 32.4024 15.5848 33.4709 14.2 34.86C16.96 37.97 22.86 40.37 31.44 40.37C40.27 40.37 46.22 38.0601 49 35.0501C47.5117 33.5657 45.7114 32.4315 43.73 31.73Z" fill="#1C1C1C"/>
<path opacity="0.3" d="M31.3001 21.66C35.5346 21.6019 39.7451 22.3064 43.7301 23.7399C56.7301 28.8099 51.4101 40.63 31.4401 40.63C12.4401 40.63 6.44005 28.8099 19.1001 23.7399C23.0036 22.3001 27.1399 21.5949 31.3001 21.66ZM31.3001 19.66C26.8831 19.591 22.4918 20.3438 18.3501 21.88C12.6601 24.17 9.75008 28.07 10.5701 32.31C11.5701 37.44 18.4001 42.6099 31.4401 42.6099C43.1801 42.6099 51.5201 38.6099 52.6801 32.4699C53.4901 28.1599 50.4101 24.1999 44.4501 21.8699C40.2357 20.3471 35.7807 19.5984 31.3001 19.66Z" fill="url(#paint4_linear)"/>
<defs>
<linearGradient id="paint0_linear" x1="32" y1="56" x2="32" y2="5.56006" gradientUnits="userSpaceOnUse">
<stop stop-color="white"/>
<stop offset="1" stop-color="#808080" stop-opacity="0"/>
</linearGradient>
<linearGradient id="paint1_linear" x1="32.1" y1="43.86" x2="32.1" y2="56" gradientUnits="userSpaceOnUse">
<stop stop-color="white"/>
<stop offset="1" stop-color="white" stop-opacity="0"/>
</linearGradient>
<linearGradient id="paint2_linear" x1="31.745" y1="13.5601" x2="31.745" y2="23.25" gradientUnits="userSpaceOnUse">
<stop stop-color="white"/>
<stop offset="1" stop-color="#C4C4C4" stop-opacity="0"/>
</linearGradient>
<linearGradient id="paint3_linear" x1="31.62" y1="40.63" x2="31.62" y2="21.66" gradientUnits="userSpaceOnUse">
<stop stop-color="#1C1C1C"/>
<stop offset="1" stop-color="#1C1C1C" stop-opacity="0.05"/>
</linearGradient>
<linearGradient id="paint4_linear" x1="31.6201" y1="42.6199" x2="31.6201" y2="19.67" gradientUnits="userSpaceOnUse">
<stop stop-color="white"/>
<stop offset="0.78" stop-color="white" stop-opacity="0.05"/>
</linearGradient>
</defs>
</svg>
