<svg width="64" height="64" viewBox="0 0 64 64" fill="none" xmlns="http://www.w3.org/2000/svg">
<path d="M29.93 3.35999L17.93 2.85999L29.28 6.73999C35.14 8.73999 39.19 11.98 41.28 16.38C42.2137 18.3556 42.7667 20.4895 42.91 22.67C40.21 17.98 35.1 14.42 27.27 14.42C24.568 14.3871 21.8871 14.8985 19.3871 15.9238C16.887 16.949 14.6189 18.4672 12.718 20.3876C10.8172 22.3081 9.32239 24.5916 8.32283 27.1021C7.32326 29.6125 6.83936 32.2985 6.89996 35C6.89996 48.84 17.01 58.88 30.9 58.88C47.06 58.88 58.79 47.03 58.79 30.72C58.84 16.78 45.33 3.99999 29.93 3.35999Z" fill="#1A1A1A"/>
<path opacity="0.4" d="M29.93 3.35999L17.93 2.85999L29.28 6.73999C35.14 8.73999 39.19 11.98 41.28 16.38C42.2137 18.3556 42.7667 20.4895 42.91 22.67C40.21 17.98 35.1 14.42 27.27 14.42C24.568 14.3871 21.8871 14.8985 19.3871 15.9238C16.887 16.949 14.6189 18.4672 12.718 20.3876C10.8172 22.3081 9.32239 24.5916 8.32283 27.1021C7.32326 29.6125 6.83936 32.2985 6.89996 35C6.89996 48.84 17.01 58.88 30.9 58.88C47.06 58.88 58.79 47.03 58.79 30.72C58.84 16.78 45.33 3.99999 29.93 3.35999Z" fill="url(#paint0_linear)"/>
<path d="M29.85 5.09998C35.9972 6.06197 41.5994 9.18596 45.6489 13.91C49.6983 18.634 51.9291 24.6479 51.94 30.87C51.9321 36.5078 49.6882 41.9122 45.7008 45.8978C41.7133 49.8834 36.3078 52.1247 30.67 52.13C26.1032 52.078 21.7381 50.2408 18.5086 47.0114C15.2792 43.7819 13.442 39.4168 13.39 34.85C13.4542 31.157 14.9498 27.6333 17.5616 25.0215C20.1733 22.4098 23.697 20.9142 27.39 20.85C33.64 20.85 39.39 25.12 39.39 31.58C39.3263 34.151 38.2746 36.5985 36.4533 38.4142C34.632 40.23 32.1811 41.2742 29.61 41.33C25.61 41.33 22.69 39 22.69 34.95C22.69 33.95 23.69 30.54 26.69 30.54C29.08 30.54 29.93 31.39 30.16 32.46C30.2488 33.0037 30.2042 33.5607 30.03 34.0833C29.8558 34.6059 29.5572 35.0784 29.16 35.46C29.6072 35.4092 30.0399 35.2703 30.4332 35.0515C30.8265 34.8326 31.1725 34.5381 31.4514 34.1848C31.7303 33.8316 31.9365 33.4266 32.0581 32.9932C32.1797 32.5599 32.2143 32.1068 32.16 31.66C31.87 29.28 30.34 27.61 26.73 27.61C21.92 27.61 19.86 31.94 19.86 34.89C19.86 40.64 24.13 44.36 29.86 44.36C37.14 44.36 43.53 39.83 43.53 31.36C43.53 24.27 38.7 16.08 27.33 16.08C24.8445 16.0399 22.3767 16.5035 20.0753 17.4429C17.7739 18.3824 15.6865 19.7782 13.9391 21.5461C12.1917 23.3141 10.8204 25.4176 9.908 27.7299C8.99554 30.0421 8.56081 32.5152 8.63 35C8.63 48.53 18.71 57.15 30.95 57.15C45.58 57.15 57.11 46.78 57.11 30.72C57.11 17.15 43.75 5.67998 29.85 5.09998Z" fill="#E6E6E6"/>
<path opacity="0.5" d="M29.85 5.09998C35.9972 6.06197 41.5994 9.18596 45.6489 13.91C49.6983 18.634 51.9291 24.6479 51.94 30.87C51.9321 36.5078 49.6882 41.9122 45.7008 45.8978C41.7133 49.8834 36.3078 52.1247 30.67 52.13C26.1032 52.078 21.7381 50.2408 18.5086 47.0114C15.2792 43.7819 13.442 39.4168 13.39 34.85C13.4542 31.157 14.9498 27.6333 17.5616 25.0215C20.1733 22.4098 23.697 20.9142 27.39 20.85C33.64 20.85 39.39 25.12 39.39 31.58C39.3263 34.151 38.2746 36.5985 36.4533 38.4142C34.632 40.23 32.1811 41.2742 29.61 41.33C25.61 41.33 22.69 39 22.69 34.95C22.69 33.95 23.69 30.54 26.69 30.54C29.08 30.54 29.93 31.39 30.16 32.46C30.2488 33.0037 30.2042 33.5607 30.03 34.0833C29.8558 34.6059 29.5572 35.0784 29.16 35.46C29.6072 35.4092 30.0399 35.2703 30.4332 35.0515C30.8265 34.8326 31.1725 34.5381 31.4514 34.1848C31.7303 33.8316 31.9365 33.4266 32.0581 32.9932C32.1797 32.5599 32.2143 32.1068 32.16 31.66C31.87 29.28 30.34 27.61 26.73 27.61C21.92 27.61 19.86 31.94 19.86 34.89C19.86 40.64 24.13 44.36 29.86 44.36C37.14 44.36 43.53 39.83 43.53 31.36C43.53 24.27 38.7 16.08 27.33 16.08C24.8445 16.0399 22.3767 16.5035 20.0753 17.4429C17.7739 18.3824 15.6865 19.7782 13.9391 21.5461C12.1917 23.3141 10.8204 25.4176 9.908 27.7299C8.99554 30.0421 8.56081 32.5152 8.63 35C8.63 48.53 18.71 57.15 30.95 57.15C45.58 57.15 57.11 46.78 57.11 30.72C57.11 17.15 43.75 5.67998 29.85 5.09998Z" fill="url(#paint1_linear)"/>
<defs>
<linearGradient id="paint0_linear" x1="32.87" y1="2.85999" x2="32.87" y2="58.86" gradientUnits="userSpaceOnUse">
<stop stop-color="white"/>
<stop offset="1" stop-color="white" stop-opacity="0.05"/>
</linearGradient>
<linearGradient id="paint1_linear" x1="9.2563" y1="33.5773" x2="57.9018" y2="33.5773" gradientUnits="userSpaceOnUse">
<stop/>
<stop offset="1" stop-color="white"/>
</linearGradient>
</defs>
</svg>
