<svg width="64" height="64" viewBox="0 0 64 64" fill="none" xmlns="http://www.w3.org/2000/svg">
<path d="M43 43C38.09 33.44 42.24 20.27 54 17.5H55.5C57.6024 17.5082 58.5 17.5 60.5 17.5C60.5 17.5 55.5 4.26155 35 12.5C20.07 18.5 8.6 44.64 5.5 52.5C4.77 53.97 4.5 54.5 4.5 54.5H56.5C56.5 54.5 47.58 51.92 43 43Z" fill="#333333"/>
<path fill-rule="evenodd" clip-rule="evenodd" d="M42.02 30.2059C43.2591 24.5738 47.279 19.7496 54.07 18.15H55.66C57.7624 18.1582 59.8543 18.4475 61.88 19.01C61.88 19.01 59.35 9.01001 47.27 9.01001C42.8681 9.14303 38.5328 10.1208 34.5 11.89C19.57 17.89 8.06001 44.79 4.96001 52.65C4.23001 54.12 3.88 55 3.88 55H58.19C58.19 55 48.35 51.84 43.77 42.92C42.4431 40.3365 41.7268 37.5427 41.62 34.7862V34C41.6217 32.7428 41.7558 31.4892 42.02 30.26V30.2059ZM58.36 16.3C56.68 13.89 53.39 11 47.26 11L47.27 11.01C45.5025 11.0731 43.7469 11.2789 42.02 11.6237V24.6269C43.1223 22.7006 44.5844 20.9981 46.3313 19.6146C48.4596 17.929 50.9519 16.7632 53.61 16.21L54.5 16.15H55.65C56.5554 16.1515 57.46 16.2015 58.36 16.3ZM39.6486 35.6631C39.6798 36.1074 39.7253 36.5499 39.7851 36.9901L28 50.36V21.1L39.6486 35.6631ZM40.02 30.0815C39.858 30.8687 39.7423 31.6652 39.6735 32.4669L28.3121 18.2652C30.5283 16.2953 32.8562 14.7263 35.27 13.75C36.8118 13.0739 38.3999 12.5189 40.02 12.0885V30.0815ZM26.02 20.4802C21.3623 25.3411 17.2788 31.7902 14.0353 37.8361L26.02 50.49V20.4802ZM13.0485 39.7116C10.2297 45.1737 8.14462 50.1193 7 53H25.6215L13.0485 39.7116ZM28.3352 53L40.277 39.4637C40.6751 40.9745 41.2454 42.4398 41.98 43.83C43.9193 47.4948 46.711 50.6398 50.12 53H28.3352Z" fill="white"/>
</svg>
