<svg width="16" height="16" viewBox="0 0 16 16" fill="none" xmlns="http://www.w3.org/2000/svg">
<path opacity="0.5" d="M12.47 10.25C13.3141 10.4714 14.0774 10.9293 14.67 11.5699C14.776 11.6934 14.8635 11.8315 14.93 11.98C14.9892 12.143 15.0098 12.3176 14.99 12.49C14.9378 12.8041 14.8071 13.0999 14.61 13.35C14.2567 13.7671 13.842 14.1279 13.38 14.42C11.5984 15.4679 9.55579 15.9881 7.49 15.92C5.43673 15.9047 3.41952 15.3789 1.62001 14.39C1.13895 14.1205 0.714502 13.7605 0.370008 13.33C0.268255 13.2165 0.19007 13.0839 0.140005 12.9399C0.0569447 12.7934 0.0122315 12.6284 0.0100075 12.46C0.00377764 12.2872 0.0274593 12.1146 0.0800072 11.95C0.159683 11.8154 0.246467 11.6853 0.340002 11.5601C0.916714 10.9269 1.66285 10.4722 2.49 10.25C1.77121 10.6562 1.13653 11.1958 0.620008 11.84C0.483461 12.0057 0.418342 12.219 0.43897 12.4327C0.459598 12.6465 0.564284 12.8434 0.730009 12.98C1.06236 13.3256 1.4556 13.6071 1.89 13.8101C3.65069 14.63 5.56778 15.0597 7.51001 15.0699C9.44559 15.1322 11.3664 14.713 13.1 13.85C13.5254 13.6243 13.9133 13.3342 14.25 12.99C14.57 12.63 14.71 12.21 14.41 11.87C13.8945 11.1899 13.2311 10.636 12.47 10.25Z" fill="white"/>
<path opacity="0.5" d="M10.48 10.4399C10.9856 10.5739 11.4431 10.8477 11.8 11.23C11.867 11.3038 11.9211 11.3883 11.96 11.48C11.9846 11.5785 11.9846 11.6815 11.96 11.78C11.9334 11.9684 11.8537 12.1454 11.73 12.29C11.5213 12.5399 11.2751 12.7559 11 12.9301C9.93173 13.5559 8.70733 13.8645 7.47003 13.8199C6.23567 13.8174 5.02177 13.5046 3.94003 12.91C3.65017 12.7527 3.39508 12.5384 3.19003 12.28C3.13321 12.21 3.08612 12.1327 3.05003 12.05C3.00453 11.9601 2.98057 11.8608 2.98003 11.76C2.95587 11.6615 2.95587 11.5585 2.98003 11.46C3.02518 11.3779 3.0788 11.3008 3.14003 11.23C3.48253 10.8499 3.92669 10.5757 4.42003 10.4399C3.98692 10.6996 3.6069 11.0389 3.30003 11.4399C3.2214 11.5384 3.18465 11.6639 3.19775 11.7893C3.21085 11.9147 3.27273 12.0299 3.37003 12.11C3.56704 12.318 3.80101 12.4875 4.06003 12.61C5.12057 13.0974 6.27286 13.3531 7.44003 13.36C8.59995 13.3981 9.75114 13.1473 10.79 12.63C11.0458 12.498 11.2788 12.3258 11.48 12.12C11.67 11.91 11.76 11.65 11.57 11.45C11.2866 11.0362 10.9142 10.691 10.48 10.4399Z" fill="white"/>
<path d="M7.5 0C5.9 3.21 3.5 4.99997 3.5 7.21997C3.5 8.28084 3.92142 9.29832 4.67157 10.0485C5.42172 10.7986 6.43913 11.22 7.5 11.22C8.56087 11.22 9.57828 10.7986 10.3284 10.0485C11.0786 9.29832 11.5 8.28084 11.5 7.21997C11.5 4.99997 9.1 3.21 7.5 0ZM9.5 10L7.5 8L5.5 10L4.5 9L6.5 7L4.5 5L5.5 4L7.5 6L9.5 4L10.5 5L8.5 7L10.5 9L9.5 10Z" fill="white"/>
</svg>
