<svg width="16" height="16" viewBox="0 0 16 16" fill="none" xmlns="http://www.w3.org/2000/svg">
<path opacity="0.5" d="M0 8H8.01L4 0.880005L0 8Z" fill="white"/>
<path opacity="0.5" d="M8.80012 6H14.0001L10.5701 0L7.87012 4.38L8.80012 6Z" fill="white"/>
<path d="M15.9999 9.73004C15.9999 8.84004 14.7599 7.99002 12.5199 7.99002C11.289 7.89245 10.0688 8.28007 9.11989 9.07004C8.97793 9.20923 8.80868 9.31753 8.6228 9.38809C8.43693 9.45865 8.23846 9.48996 8.03989 9.48004C7.74989 9.48004 7.46989 9.48004 7.17989 9.48004C2.90989 9.48004 0.629883 11.05 0.629883 12.54C0.629883 13.83 3.18989 14.88 7.17989 14.88C11.1699 14.88 13.7199 13.88 13.7199 12.54C13.7147 12.2797 13.6349 12.0263 13.4899 11.81C13.4484 11.7404 13.4256 11.6612 13.4238 11.5802C13.4219 11.4992 13.441 11.4191 13.4792 11.3477C13.5175 11.2762 13.5736 11.2158 13.642 11.1725C13.7104 11.1291 13.789 11.1041 13.8699 11.1C15.0799 10.89 15.9999 10.38 15.9999 9.73004Z" fill="white"/>
</svg>
