<svg width="16" height="16" viewBox="0 0 16 16" fill="none" xmlns="http://www.w3.org/2000/svg">
<g clip-path="url(#clip0)">
<path d="M12.89 9.94C14 9.94 14.98 10.25 14.98 10.66C14.98 11.07 14.51 11.38 13.98 11.47C13.7709 11.4807 13.5683 11.5466 13.3927 11.6607C13.2172 11.7748 13.0748 11.9332 12.98 12.12C12.8629 12.322 12.7962 12.5494 12.7858 12.7827C12.7753 13.016 12.8214 13.2483 12.92 13.46C12.9642 13.5294 12.9916 13.6082 13 13.69C13 14.05 11.51 15 8.15005 15C4.56005 15 3.26005 14.09 3.26005 13.38C3.26005 12.67 4.72005 11.44 8.15005 11.44H8.84004H9.00005C9.30236 11.4419 9.60175 11.3806 9.879 11.2601C10.1562 11.1395 10.4053 10.9624 10.61 10.74C10.9139 10.4559 11.2734 10.238 11.6659 10.1003C12.0584 9.96256 12.4753 9.90799 12.89 9.94ZM12.89 9.25C12.3485 9.20753 11.804 9.27415 11.2887 9.44592C10.7734 9.61769 10.2978 9.89111 9.89005 10.25C9.78002 10.3759 9.6449 10.4774 9.49336 10.548C9.34182 10.6186 9.1772 10.6567 9.01005 10.66H8.93005C8.67005 10.66 8.42005 10.66 8.16005 10.66C4.34005 10.66 2.30005 12.21 2.30005 13.66C2.30005 14.94 4.59005 15.97 8.16005 15.97C11.73 15.97 14.01 14.97 14.01 13.66C14.0062 13.41 13.9372 13.1653 13.81 12.95C13.7718 12.8842 13.7501 12.8101 13.7468 12.734C13.7435 12.6579 13.7588 12.5822 13.7912 12.5134C13.8237 12.4445 13.8724 12.3846 13.9332 12.3387C13.9939 12.2928 14.0649 12.2624 14.14 12.25C15.23 12.08 16.05 11.57 16.05 10.93C16.05 10.05 14.94 9.21997 12.94 9.21997L12.89 9.25Z" fill="white"/>
<path d="M7.77 9.94H7.86C8.04963 9.93246 8.23583 9.887 8.40759 9.80627C8.57935 9.72555 8.73318 9.61116 8.86 9.46997C9.24158 9.07818 9.71131 8.78333 10.23 8.60999L5.5 0L0 10H6.85C7.17 10 7.47 9.94 7.77 9.94ZM5.5 2.08002L9.31 9H1.69L5.5 2.08002Z" fill="white"/>
<path opacity="0.5" d="M9.53002 8.94003L5.75002 6.37003V1.78003H5.25002V6.37003L1.52002 9.03003L1.81002 9.44003L5.50002 6.81003L9.03002 9.38003L9.53002 8.94003Z" fill="white"/>
</g>
<defs>
<clipPath id="clip0">
<rect width="16" height="16" fill="white"/>
</clipPath>
</defs>
</svg>
