<svg width="16" height="16" viewBox="0 0 16 16" fill="none" xmlns="http://www.w3.org/2000/svg">
<path opacity="0.5" d="M8 13.13L2 12V6.41003C2.30375 6.27752 2.59782 6.12372 2.88 5.94995L3.20996 5.72998L3.54004 5.94995C3.86075 6.14075 4.19497 6.30787 4.54004 6.44995L4.79004 6.55005L5.03003 6.62H5.08997C5.19644 6.62914 5.30356 6.62914 5.41003 6.62C5.51987 6.62861 5.63016 6.62861 5.73999 6.62V6.62L5.97998 6.55005L6.22998 6.44995C6.57426 6.30614 6.90837 6.13909 7.22998 5.94995L7.59998 5.70996L7.90002 5.90002L8 13.13ZM14 6.18994L13.46 5.90002L13.2 5.72998L12.9399 5.90002C12.6991 6.04988 12.4486 6.18354 12.1899 6.30005V6.30005L11.99 6.37L11.8 6.43005H11.54H11.29H11.16V12.8199L14.16 11.6801L14 6.18994Z" fill="white"/>
<path d="M14.0001 11.65L11.0001 12.79V8.67004H11.1301H11.3801H11.6401L11.8301 8.60999L12.0302 8.54004C12.2888 8.42353 12.5393 8.28987 12.7802 8.14001L13.0402 7.96997L13.3002 8.14001C13.4744 8.24706 13.6546 8.34393 13.8401 8.43005L14.0001 11.65ZM8.00012 8.01001L7.70007 7.81995L7.33008 8.06006C7.00846 8.2492 6.67436 8.41625 6.33008 8.56006V8.56006L6.08008 8.66003L5.84009 8.72998C5.7305 8.74348 5.61972 8.74348 5.51013 8.72998C5.40393 8.74403 5.29627 8.74403 5.19006 8.72998H5.13013L4.89014 8.66003L4.64014 8.56006C4.29507 8.41797 3.96085 8.25086 3.64014 8.06006L3.31018 7.83997L2.9801 8.06006C2.69791 8.23383 2.40385 8.3875 2.1001 8.52002V12L8.1001 13.13L8.00012 8.01001Z" fill="white"/>
<path d="M16 3.1L10 0.25V1.54L15 3.61V12.39L10 14.64V15.75L16 12.89V3.1Z" fill="white"/>
<path d="M0 2.44995V13.6L9.52002 16L10 15.75V0.25L9.47998 0L0 2.44995ZM9 14.67L1 12.98V3.06995L9 1.52002V14.67Z" fill="white"/>
</svg>
