<svg width="16" height="16" viewBox="0 0 16 16" fill="none" xmlns="http://www.w3.org/2000/svg">
<g clip-path="url(#clip0)">
<path opacity="0.5" d="M0.230103 12.89L0.550102 12.76C0.977724 12.5642 1.39196 12.3404 1.7901 12.09C1.9901 11.95 2.1501 11.85 2.2201 11.79L2.6601 12.09C3.05703 12.3425 3.4714 12.5664 3.9001 12.76L4.2201 12.89L4.5401 12.99H4.6001C4.73977 13.0035 4.88042 13.0035 5.0201 12.99C5.15971 13.0047 5.30049 13.0047 5.4401 12.99H5.5101L5.8301 12.89L6.1501 12.76C6.57772 12.5642 6.99195 12.3404 7.3901 12.09L7.8601 11.77C7.8601 11.77 8.0601 11.92 8.3401 12.1C8.73824 12.3503 9.15248 12.5742 9.5801 12.77L9.9001 12.9L10.2201 13H10.2901C10.5628 13.0666 10.8474 13.0666 11.1201 13H11.1901L11.5101 12.9L11.8301 12.77C12.2588 12.5764 12.6732 12.3524 13.0701 12.1C13.2801 11.96 13.4301 11.86 13.5001 11.8C13.5701 11.86 13.7301 11.96 13.9301 12.1C14.3282 12.3503 14.7425 12.5742 15.1701 12.77L15.4901 12.9H15.6101V12.63C15.6101 12.63 12.6101 2.18 12.3901 1L12.2301 0.919983C12.0232 1.1166 11.7766 1.26669 11.5069 1.36011C11.2372 1.45352 10.9507 1.48813 10.6665 1.46161C10.3823 1.43509 10.1071 1.34801 9.85934 1.2063C9.61158 1.06459 9.39704 0.871523 9.2301 0.640015C9.01481 0.885553 8.7507 1.08353 8.45464 1.22131C8.15857 1.35909 7.83703 1.4336 7.51054 1.44019C7.18404 1.44677 6.85977 1.38525 6.55838 1.25952C6.25699 1.1338 5.98512 0.946678 5.7601 0.710022C4.7001 1.80002 3.6901 1.57003 2.6201 0.840027C2.6201 0.840027 2.5501 1.06998 2.5101 1.09998C2.1901 2.50998 -0.399902 12.63 -0.399902 12.63V12.93L0.230103 12.89ZM4.5401 5.02002C6.6767 4.2731 9.0035 4.2731 11.1401 5.02002C14.6201 6.37002 13.2001 9.53998 7.8501 9.53998C2.7601 9.53998 1.1601 6.37 4.5401 5V5.02002Z" fill="white"/>
<path d="M16 12.93H15.88L15.56 12.8C15.1324 12.6042 14.7181 12.3804 14.32 12.13C14.12 11.99 13.96 11.89 13.89 11.83C13.82 11.89 13.67 11.99 13.46 12.13C13.0631 12.3825 12.6487 12.6063 12.22 12.8L11.9 12.93L11.58 13.03H11.51C11.2373 13.0966 10.9527 13.0966 10.68 13.03H10.61L10.29 12.93L9.97 12.8C9.54238 12.6042 9.12815 12.3804 8.73 12.13C8.45 11.95 8.27 11.81 8.25 11.8L7.78 12.12C7.38185 12.3704 6.96762 12.5942 6.54 12.79L6.22 12.92L5.9 13.02H5.83C5.69039 13.0348 5.54962 13.0348 5.41 13.02C5.27033 13.0335 5.12967 13.0335 4.99 13.02H4.93L4.61 12.92L4.29 12.79C3.8613 12.5963 3.44693 12.3724 3.05 12.12L2.61 11.82C2.54 11.88 2.38 11.98 2.18 12.12C1.78186 12.3704 1.36762 12.5942 0.940002 12.79L0.620003 12.92L0 13V15H16V12.93Z" fill="white"/>
<path d="M7.81989 4.46002C8.92001 4.44776 10.0136 4.63056 11.0499 5C13.2899 5.87 13.4399 7.51003 11.7899 8.53003C10.5779 9.16693 9.21738 9.46735 7.84989 9.40002C6.52461 9.45966 5.20794 9.15901 4.03989 8.53003C2.39989 7.53003 2.45989 5.87 4.62989 5C5.65147 4.62727 6.73255 4.44429 7.81989 4.46002ZM7.81989 4.21002C6.64986 4.19217 5.48672 4.39221 4.38989 4.79999C3.18989 5.27999 2.48989 6.00998 2.38989 6.85998C2.39518 7.29633 2.52134 7.72272 2.75436 8.09167C2.98739 8.46063 3.31815 8.75774 3.70989 8.95001C4.97232 9.64225 6.40188 9.9711 7.83989 9.90002C9.32231 9.96795 10.7961 9.64005 12.1099 8.95001C12.4859 8.76682 12.8037 8.48287 13.028 8.12976C13.2522 7.77665 13.374 7.36825 13.3799 6.95001C13.2999 6.08001 12.5599 5.32002 11.2899 4.83002C10.1717 4.42423 8.98931 4.22431 7.7999 4.23999L7.81989 4.21002Z" fill="white"/>
</g>
<defs>
<clipPath id="clip0">
<rect width="16" height="16" fill="white"/>
</clipPath>
</defs>
</svg>
