<svg width="16" height="16" viewBox="0 0 16 16" fill="none" xmlns="http://www.w3.org/2000/svg">
<path d="M7.18996 0.25C8.84702 0.503846 10.358 1.34397 11.448 2.61755C12.5381 3.89114 13.1349 5.51362 13.13 7.19C13.1273 8.70623 12.5238 10.1596 11.4517 11.2318C10.3796 12.3039 8.92619 12.9073 7.40997 12.91C6.18154 12.8944 5.00781 12.3995 4.13911 11.5308C3.27042 10.6621 2.77552 9.48843 2.75996 8.26001C2.76253 7.92198 2.8096 7.58575 2.89996 7.26001C3.11131 6.45736 3.58163 5.7469 4.23797 5.23883C4.8943 4.73076 5.69996 4.45348 6.52996 4.45001C6.93293 4.42015 7.33778 4.47196 7.72022 4.60242C8.10266 4.73287 8.4548 4.93927 8.75552 5.20917C9.05623 5.47907 9.29933 5.80693 9.47021 6.1731C9.6411 6.53926 9.73625 6.93618 9.74996 7.34003C9.73224 8.03196 9.44947 8.69062 8.96004 9.18005C8.4706 9.66949 7.8119 9.95225 7.11996 9.96997C6.8813 9.9958 6.63986 9.97018 6.41193 9.89484C6.184 9.81949 5.97487 9.69619 5.79861 9.5332C5.62236 9.37022 5.48308 9.17136 5.39017 8.95001C5.29725 8.72866 5.25285 8.48996 5.25996 8.25C5.25996 7.99 5.53996 7.06 6.33996 7.06C6.97996 7.06 7.20996 7.29002 7.26996 7.58002C7.29728 7.72837 7.28688 7.88119 7.2397 8.02448C7.19252 8.16776 7.11008 8.29692 6.99996 8.40002C7.23817 8.37238 7.45583 8.25177 7.60564 8.06451C7.75544 7.87726 7.82528 7.63849 7.79996 7.40002C7.71996 6.76002 7.30996 6.31 6.33996 6.31C6.08561 6.31495 5.83488 6.37117 5.60279 6.47534C5.3707 6.57952 5.16203 6.72951 4.98929 6.91626C4.81654 7.10301 4.68327 7.3227 4.59747 7.56219C4.51167 7.80169 4.47511 8.05604 4.48996 8.31C4.48338 8.65958 4.54991 9.00667 4.68529 9.32904C4.82066 9.65141 5.0219 9.94199 5.27609 10.1821C5.53029 10.4221 5.83184 10.6065 6.16141 10.7232C6.49099 10.84 6.84133 10.8865 7.18996 10.86C7.66596 10.8966 8.14433 10.8328 8.59412 10.6728C9.0439 10.5128 9.45508 10.2601 9.80103 9.93109C10.147 9.60211 10.42 9.20418 10.6024 8.763C10.7848 8.32182 10.8726 7.84723 10.86 7.37C10.8699 6.80559 10.7619 6.24533 10.5431 5.72498C10.3243 5.20463 9.99936 4.73566 9.58907 4.34796C9.17879 3.96026 8.69216 3.66237 8.16026 3.47333C7.62837 3.28428 7.0629 3.2082 6.49996 3.25C5.83742 3.24994 5.18147 3.38157 4.57024 3.63721C3.959 3.89285 3.40466 4.2674 2.93945 4.73914C2.47423 5.21087 2.1074 5.77034 1.86028 6.38507C1.61317 6.9998 1.49069 7.65753 1.49996 8.32001C1.46903 9.11623 1.60307 9.91021 1.89365 10.6522C2.18424 11.3941 2.62509 12.068 3.18853 12.6314C3.75197 13.1948 4.42582 13.6357 5.16777 13.9263C5.90972 14.2169 6.70374 14.3509 7.49996 14.32C8.43594 14.3471 9.36744 14.1808 10.2363 13.8316C11.1051 13.4824 11.8926 12.9578 12.5495 12.2905C13.2064 11.6233 13.7187 10.8277 14.0543 9.95355C14.3899 9.07939 14.5416 8.14546 14.5 7.21002C14.52 3.49002 10.93 0.41 7.18996 0.25Z" fill="white"/>
</svg>
