<svg width="64" height="64" viewBox="0 0 64 64" fill="none" xmlns="http://www.w3.org/2000/svg">
<path d="M22.15 30.28L18.89 27.02C18.89 27.02 24.09 20.67 27.17 17.58C30.25 14.49 43.45 4.30005 43.45 4.30005C43.5431 4.2048 43.6544 4.12906 43.7771 4.07739C43.8999 4.02572 44.0318 3.99915 44.165 3.99915C44.2982 3.99915 44.4301 4.02572 44.5529 4.07739C44.6757 4.12906 44.7869 4.2048 44.88 4.30005C44.9737 4.39301 45.0481 4.50351 45.0989 4.62537C45.1497 4.74723 45.1758 4.878 45.1758 5.01001C45.1758 5.14202 45.1497 5.27267 45.0989 5.39453C45.0481 5.51639 44.9737 5.62701 44.88 5.71997C44.88 5.71997 34.59 19 31.51 22.09C28.43 25.18 22.15 30.28 22.15 30.28Z" fill="#666666"/>
<path d="M19.26 31.14L17.26 28.8499C17.26 28.8499 11.86 27.9399 9.84001 35.2299C8.55001 39.8999 2.02002 42.9999 2.02002 42.9999H10.11C11.9123 42.9636 13.6705 42.4359 15.1948 41.4737C16.7192 40.5115 17.9519 39.1514 18.76 37.54C20.61 33.83 19.26 31.14 19.26 31.14Z" fill="#B3B3B3"/>
<path opacity="0.7" d="M47.13 49.66C50.6 56.43 58.07 58.83 58.07 58.83H16.87C16.87 58.83 28.31 30.6899 55.87 30.6899C46.21 32.2799 43.28 42.16 47.13 49.66Z" fill="#4D4D4D"/>
<path opacity="0.9" d="M47.13 49.66C50.6 56.43 58.07 58.83 58.07 58.83H16.87C16.87 58.83 28.31 30.6899 55.87 30.6899C46.21 32.2799 43.28 42.16 47.13 49.66Z" fill="url(#paint0_linear)"/>
<path d="M60.8701 31.53C59.3325 31.1052 57.7452 30.8866 56.1501 30.88C51.566 30.7461 47.0029 31.5491 42.7401 33.24C25.9301 39.4 17.0601 58.7 17.0601 58.7C17.0601 58.7 26.7901 31.51 40.0601 26.12C57.7001 19 60.8701 31.53 60.8701 31.53Z" fill="white"/>
<defs>
<linearGradient id="paint0_linear" x1="37.47" y1="58.83" x2="37.47" y2="30.6899" gradientUnits="userSpaceOnUse">
<stop stop-color="white"/>
<stop offset="0.78" stop-color="#999999" stop-opacity="0.05"/>
</linearGradient>
</defs>
</svg>
