<svg width="64" height="64" viewBox="0 0 64 64" fill="none" xmlns="http://www.w3.org/2000/svg">
<path opacity="0.7" d="M3.47998 30H31.48L17.48 5.10999L3.47998 30Z" fill="#666666"/>
<path d="M3.47998 30H31.48L17.48 5.10999L3.47998 30Z" fill="url(#paint0_linear)"/>
<path opacity="0.7" d="M27.91 21.46L30.24 25H52.09L39.42 2.82001L27.91 21.46Z" fill="#666666"/>
<path d="M27.91 21.46L30.24 25H52.09L39.42 2.82001L27.91 21.46Z" fill="url(#paint1_linear)"/>
<path d="M60 36.25C60 32.66 55.5 29.25 47.31 29.25C41.19 29.25 37.25 31.1 34.92 33.55C34.4248 34.1003 33.8136 34.5337 33.1305 34.8191C32.4474 35.1044 31.7095 35.2346 30.97 35.2C29.97 35.12 28.91 35.07 27.85 35.07C12.29 35.07 4 41.37 4 47.36C4 52.54 13.31 56.75 27.85 56.75C41.85 56.75 51.69 52.88 51.69 47.36C51.673 46.3291 51.3905 45.32 50.87 44.43C50.7125 44.1626 50.6233 43.8605 50.6102 43.5505C50.5971 43.2404 50.6606 42.9319 50.795 42.6522C50.9294 42.3725 51.1307 42.1302 51.3809 41.9467C51.6312 41.7631 51.9228 41.6441 52.23 41.6C56.64 40.91 60 38.84 60 36.25Z" fill="#4D4D4D"/>
<path d="M60 36.25C60 32.66 55.5 29.25 47.31 29.25C41.19 29.25 37.25 31.1 34.92 33.55C34.4248 34.1003 33.8136 34.5337 33.1305 34.8191C32.4474 35.1044 31.7095 35.2346 30.97 35.2C29.97 35.12 28.91 35.07 27.85 35.07C12.29 35.07 4 41.37 4 47.36C4 52.54 13.31 56.75 27.85 56.75C41.85 56.75 51.69 52.88 51.69 47.36C51.673 46.3291 51.3905 45.32 50.87 44.43C50.7125 44.1626 50.6233 43.8605 50.6102 43.5505C50.5971 43.2404 50.6606 42.9319 50.795 42.6522C50.9294 42.3725 51.1307 42.1302 51.3809 41.9467C51.6312 41.7631 51.9228 41.6441 52.23 41.6C56.64 40.91 60 38.84 60 36.25Z" fill="url(#paint2_linear)"/>
<defs>
<linearGradient id="paint0_linear" x1="21.73" y1="5.85999" x2="17.06" y2="32.39" gradientUnits="userSpaceOnUse">
<stop stop-color="white"/>
<stop offset="1" stop-color="#999999" stop-opacity="0.05"/>
</linearGradient>
<linearGradient id="paint1_linear" x1="1079.01" y1="81.1154" x2="995.811" y2="595.711" gradientUnits="userSpaceOnUse">
<stop stop-color="white"/>
<stop offset="1" stop-color="#999999" stop-opacity="0.05"/>
</linearGradient>
<linearGradient id="paint2_linear" x1="32" y1="56.78" x2="32" y2="29.28" gradientUnits="userSpaceOnUse">
<stop stop-color="white"/>
<stop offset="1" stop-color="#B3B3B3" stop-opacity="0.5"/>
</linearGradient>
</defs>
</svg>
