<svg width="64" height="64" viewBox="0 0 64 64" fill="none" xmlns="http://www.w3.org/2000/svg">
<path d="M48.77 31C42.86 31 39.06 32.78 36.77 35.14C36.3306 35.6317 35.7951 36.0282 35.1966 36.3051C34.5981 36.582 33.9492 36.7334 33.29 36.75H33C32 36.67 31 36.63 30 36.63C15 36.63 7 42.7 7 48.47C7 53.47 16 57.53 30 57.53C43.53 57.53 53 53.8 53 48.47C52.9787 47.4784 52.707 46.5084 52.21 45.65C52.0574 45.3931 51.9704 45.1025 51.9567 44.8039C51.9431 44.5053 52.0031 44.208 52.1316 43.9382C52.2601 43.6683 52.4531 43.4343 52.6935 43.2567C52.9339 43.0791 53.2143 42.9635 53.51 42.92C57.77 42.23 61.01 40.23 61.01 37.73C61.01 34.27 56.67 31.01 48.78 31.01L48.77 31Z" fill="#4D4D4D"/>
<path opacity="0.4" d="M48.77 31C42.86 31 39.06 32.78 36.77 35.14C36.3306 35.6317 35.7951 36.0282 35.1966 36.3051C34.5981 36.582 33.9492 36.7334 33.29 36.75H33C32 36.67 31 36.63 30 36.63C15 36.63 7 42.7 7 48.47C7 53.47 16 57.53 30 57.53C43.53 57.53 53 53.8 53 48.47C52.9787 47.4784 52.707 46.5084 52.21 45.65C52.0574 45.3931 51.9704 45.1025 51.9567 44.8039C51.9431 44.5053 52.0031 44.208 52.1316 43.9382C52.2601 43.6683 52.4531 43.4343 52.6935 43.2567C52.9339 43.0791 53.2143 42.9635 53.51 42.92C57.77 42.23 61.01 40.23 61.01 37.73C61.01 34.27 56.67 31.01 48.78 31.01L48.77 31Z" fill="url(#paint0_linear)"/>
<path d="M48.77 33.09C55.12 33.09 58.91 35.45 58.91 37.72C58.91 38.61 57.09 40.21 53.17 40.84C52.5434 40.9384 51.9501 41.1872 51.4409 41.5653C50.9317 41.9434 50.5218 42.4394 50.2465 43.0107C49.9711 43.5821 49.8385 44.2117 49.86 44.8456C49.8815 45.4794 50.0565 46.0987 50.37 46.65C50.6976 47.1985 50.88 47.8215 50.9 48.46C50.9 51.89 43.08 55.46 29.99 55.46C15.73 55.46 9.09 51.3 9.09 48.46C9.09 44.41 15.58 38.71 29.99 38.71C30.92 38.71 31.88 38.71 32.84 38.82C33.0065 38.8298 33.1735 38.8298 33.34 38.82C34.2841 38.8077 35.2155 38.6006 36.0758 38.2117C36.9362 37.8228 37.707 37.2605 38.34 36.56C40.51 34.28 44.12 33.07 48.78 33.07L48.77 33.09ZM48.78 30.98C42.87 30.98 39.07 32.76 36.78 35.12C36.3406 35.6117 35.8051 36.0082 35.2066 36.2851C34.6081 36.562 33.9592 36.7134 33.3 36.73H33C32 36.65 31 36.61 30 36.61C15 36.61 7 42.68 7 48.45C7 53.45 16 57.51 30 57.51C43.53 57.51 53 53.78 53 48.45C52.9787 47.4584 52.707 46.4883 52.21 45.63C52.0574 45.373 51.9704 45.0824 51.9567 44.7839C51.9431 44.4853 52.0031 44.188 52.1316 43.9182C52.2601 43.6483 52.4531 43.4143 52.6935 43.2367C52.9339 43.0591 53.2143 42.9435 53.51 42.9C57.77 42.21 61.01 40.21 61.01 37.71C61.01 34.25 56.67 30.99 48.78 30.99V30.98Z" fill="#CCCCCC"/>
<path d="M48.77 33.09C55.12 33.09 58.91 35.45 58.91 37.72C58.91 38.61 57.09 40.21 53.17 40.84C52.5434 40.9384 51.9501 41.1872 51.4409 41.5653C50.9317 41.9434 50.5218 42.4394 50.2465 43.0107C49.9711 43.5821 49.8385 44.2117 49.86 44.8456C49.8815 45.4794 50.0565 46.0987 50.37 46.65C50.6976 47.1985 50.88 47.8215 50.9 48.46C50.9 51.89 43.08 55.46 29.99 55.46C15.73 55.46 9.09 51.3 9.09 48.46C9.09 44.41 15.58 38.71 29.99 38.71C30.92 38.71 31.88 38.71 32.84 38.82C33.0065 38.8298 33.1735 38.8298 33.34 38.82C34.2841 38.8077 35.2155 38.6006 36.0758 38.2117C36.9362 37.8228 37.707 37.2605 38.34 36.56C40.51 34.28 44.12 33.07 48.78 33.07L48.77 33.09ZM48.78 30.98C42.87 30.98 39.07 32.76 36.78 35.12C36.3406 35.6117 35.8051 36.0082 35.2066 36.2851C34.6081 36.562 33.9592 36.7134 33.3 36.73H33C32 36.65 31 36.61 30 36.61C15 36.61 7 42.68 7 48.45C7 53.45 16 57.51 30 57.51C43.53 57.51 53 53.78 53 48.45C52.9787 47.4584 52.707 46.4883 52.21 45.63C52.0574 45.373 51.9704 45.0824 51.9567 44.7839C51.9431 44.4853 52.0031 44.188 52.1316 43.9182C52.2601 43.6483 52.4531 43.4143 52.6935 43.2367C52.9339 43.0591 53.2143 42.9435 53.51 42.9C57.77 42.21 61.01 40.21 61.01 37.71C61.01 34.25 56.67 30.99 48.78 30.99V30.98Z" fill="url(#paint1_linear)"/>
<path fill-rule="evenodd" clip-rule="evenodd" d="M7 32L20 4.97998L33 32H7Z" fill="#333333"/>
<path d="M20 1L3.82001 34H36.18L20 1ZM20 23.41L31.92 32H8L20 23.41ZM19.19 22.5L7.60001 30.76L19.19 6.66998V22.5ZM20.81 6.66998L32.46 30.88L20.81 22.5V6.66998Z" fill="white"/>
<defs>
<linearGradient id="paint0_linear" x1="34" y1="57.52" x2="34" y2="31" gradientUnits="userSpaceOnUse">
<stop stop-color="#CCCCCC"/>
<stop offset="1" stop-color="#CCCCCC" stop-opacity="0.05"/>
</linearGradient>
<linearGradient id="paint1_linear" x1="34" y1="57.52" x2="34" y2="31" gradientUnits="userSpaceOnUse">
<stop stop-color="#CCCCCC"/>
<stop offset="1" stop-color="#CCCCCC" stop-opacity="0"/>
</linearGradient>
</defs>
</svg>
