<svg width="64" height="64" viewBox="0 0 64 64" fill="none" xmlns="http://www.w3.org/2000/svg">
<path d="M42.91 38.71C40.1244 41.4317 36.3845 42.9555 32.49 42.9555C28.5955 42.9555 24.8556 41.4317 22.07 38.71C12.63 40.32 6.01001 44.07 6.01001 48.44C6.01001 54.28 17.84 59.01 32.44 59.01C47.04 59.01 58.88 54.28 58.88 48.44C58.88 44.07 52.3 40.34 42.91 38.71Z" fill="#4D4D4D"/>
<path opacity="0.4" d="M42.91 38.71C40.1244 41.4317 36.3845 42.9555 32.49 42.9555C28.5955 42.9555 24.8556 41.4317 22.07 38.71C12.63 40.32 6.01001 44.07 6.01001 48.44C6.01001 54.28 17.84 59.01 32.44 59.01C47.04 59.01 58.88 54.28 58.88 48.44C58.88 44.07 52.3 40.34 42.91 38.71Z" fill="url(#paint0_linear)"/>
<path d="M49.133 41.5C67.5226 47.4462 52.7228 57.8265 32.4665 57.8265C12.3632 57.8265 -2.4557 47.5575 15.7233 41.5C-1.17292 50.3126 21.1895 55.4147 32.5239 55.4147C43.8583 55.4147 66.125 50.0807 49.133 41.5Z" fill="#B3B3B3"/>
<path opacity="0.7" d="M49.133 41.5C67.5226 47.4462 52.7228 57.8265 32.4665 57.8265C12.3632 57.8265 -2.4557 47.5575 15.7233 41.5C-1.17292 50.3126 21.1895 55.4147 32.5239 55.4147C43.8583 55.4147 66.125 50.0807 49.133 41.5Z" fill="url(#paint1_linear)"/>
<path d="M47.67 44.15C46.98 41.85 43.8601 40.64 41.3501 40.03C41.2609 40.1023 41.1674 40.1691 41.0701 40.23C43.1301 40.93 45.53 42.16 45.93 44.15C46.64 47.74 38.68 48.68 32.5 48.68C26.32 48.68 18.63 47 19.11 44C19.45 42 21.8401 40.72 23.7201 40.06L23.5801 39.96C21.3401 40.56 18.23 41.76 17.37 43.83C15.89 47.4 22.31 50.97 32.5 50.97C42.69 50.97 48.7 47.61 47.67 44.15Z" fill="#B3B3B3"/>
<path opacity="0.5" d="M47.67 44.15C46.98 41.85 43.8601 40.64 41.3501 40.03C41.2609 40.1023 41.1674 40.1691 41.0701 40.23C43.1301 40.93 45.53 42.16 45.93 44.15C46.64 47.74 38.68 48.68 32.5 48.68C26.32 48.68 18.63 47 19.11 44C19.45 42 21.8401 40.72 23.7201 40.06L23.5801 39.96C21.3401 40.56 18.23 41.76 17.37 43.83C15.89 47.4 22.31 50.97 32.5 50.97C42.69 50.97 48.7 47.61 47.67 44.15Z" fill="url(#paint2_linear)"/>
<path d="M32.5 1C26.5 13 17.5 19.73 17.5 28C17.7765 31.7786 19.4727 35.3127 22.2478 37.8921C25.0229 40.4715 28.6713 41.9053 32.46 41.9053C36.2488 41.9053 39.8971 40.4715 42.6722 37.8921C45.4473 35.3127 47.1435 31.7786 47.42 28C47.46 19.73 38.49 13 32.5 1Z" fill="#E6E6E6"/>
<path opacity="0.9" d="M32.5 1C26.5 13 17.5 19.73 17.5 28C17.7765 31.7786 19.4727 35.3127 22.2478 37.8921C25.0229 40.4715 28.6713 41.9053 32.46 41.9053C36.2488 41.9053 39.8971 40.4715 42.6722 37.8921C45.4473 35.3127 47.1435 31.7786 47.42 28C47.46 19.73 38.49 13 32.5 1Z" fill="url(#paint3_linear)"/>
<path opacity="0.7" d="M40.23 20.32C40.6627 22.3806 40.8474 24.4856 40.78 26.59C40.39 30.99 36.78 34.95 32.85 36.44C31.4195 37.017 29.9258 37.4231 28.4 37.65C29.6486 38.3615 31.063 38.7306 32.5 38.72C35.3034 38.72 37.9919 37.6064 39.9742 35.6241C41.9564 33.6419 43.07 30.9534 43.07 28.15C43.07 25.83 41.7 22.6 40.23 20.32Z" fill="white"/>
<defs>
<linearGradient id="paint0_linear" x1="32.44" y1="59" x2="32.44" y2="38.7" gradientUnits="userSpaceOnUse">
<stop stop-color="#CCCCCC"/>
<stop offset="1" stop-color="#CCCCCC" stop-opacity="0.05"/>
</linearGradient>
<linearGradient id="paint1_linear" x1="32.5047" y1="57.8265" x2="32.5047" y2="41.5" gradientUnits="userSpaceOnUse">
<stop stop-color="white"/>
<stop offset="1" stop-color="#808080" stop-opacity="0"/>
</linearGradient>
<linearGradient id="paint2_linear" x1="6554.81" y1="10543.3" x2="6554.81" y2="10422.1" gradientUnits="userSpaceOnUse">
<stop stop-color="white"/>
<stop offset="1" stop-color="#808080" stop-opacity="0"/>
</linearGradient>
<linearGradient id="paint3_linear" x1="32.5" y1="1" x2="32.5" y2="42.95" gradientUnits="userSpaceOnUse">
<stop stop-color="#666666"/>
<stop offset="1" stop-color="#666666" stop-opacity="0.05"/>
</linearGradient>
</defs>
</svg>
