<svg width="16" height="16" viewBox="0 0 16 16" fill="none" xmlns="http://www.w3.org/2000/svg">
<g clip-path="url(#clip0)">
<path opacity="0.5" d="M12.57 12.71C13.1765 13.7755 14.1452 14.5882 15.3 15H5C5 15 7.86 8 14.76 8C14.2569 8.08681 13.7823 8.29421 13.3769 8.60449C12.9714 8.91478 12.6472 9.31866 12.4319 9.78162C12.2167 10.2446 12.1168 10.7528 12.1408 11.2628C12.1649 11.7728 12.3121 12.2693 12.57 12.71Z" fill="white"/>
<path d="M16 8.18002C15.6165 8.06884 15.2194 8.01158 14.82 8.00998C13.675 7.97781 12.5353 8.1785 11.47 8.59994C7.27005 10.1399 5.05005 14.9699 5.05005 14.9699C5.05005 14.9699 7.48004 8.16991 10.81 6.81991C15.21 4.99991 16 8.18002 16 8.18002Z" fill="white"/>
<path opacity="0.5" d="M6.19995 8.08997L5.19995 7.08997C5.19995 7.08997 6.79995 5.13994 7.73995 4.18994C8.67995 3.23994 12.74 0.0999756 12.74 0.0999756C12.7688 0.0709499 12.803 0.047947 12.8408 0.0322266C12.8786 0.0165061 12.9191 0.00842285 12.96 0.00842285C13.0009 0.00842285 13.0414 0.0165061 13.0791 0.0322266C13.1169 0.047947 13.1511 0.0709499 13.18 0.0999756C13.209 0.128791 13.232 0.163048 13.2477 0.200806C13.2635 0.238564 13.2716 0.279047 13.2716 0.319946C13.2716 0.360846 13.2635 0.401451 13.2477 0.439209C13.232 0.476967 13.209 0.511224 13.18 0.540039C13.18 0.540039 10.02 4.63004 9.06995 5.54004C8.11995 6.45004 6.19995 8.08997 6.19995 8.08997Z" fill="white"/>
<path d="M5.31 8.35L4.69 7.65005C4.69 7.65005 3.03 7.37005 2.41 9.65005C2.01 11.09 0 12.0401 0 12.0401H2.49C3.04419 12.0282 3.58466 11.8655 4.05333 11.5695C4.522 11.2735 4.90114 10.8553 5.15 10.36C5.32972 10.0599 5.43767 9.72247 5.46542 9.3738C5.49318 9.02514 5.43998 8.67471 5.31 8.35Z" fill="white"/>
</g>
<defs>
<clipPath id="clip0">
<rect width="16" height="16" fill="white"/>
</clipPath>
</defs>
</svg>
