<svg width="16" height="16" viewBox="0 0 16 16" fill="none" xmlns="http://www.w3.org/2000/svg">
<g clip-path="url(#clip0)">
<path d="M11.0001 10.6701C10.7198 10.1119 10.5371 9.50985 10.4601 8.89004C10.4355 8.61392 10.4355 8.3362 10.4601 8.06008C10.4693 7.70217 10.5196 7.34644 10.6101 7.00002C10.6101 6.81002 10.7301 6.62008 10.8001 6.43008C11.0598 5.77408 11.4795 5.19347 12.0209 4.74111C12.5624 4.28875 13.2084 3.97892 13.9001 3.83999H14.3401C14.9176 3.84207 15.4925 3.91937 16.0501 4.06997C15.7789 3.23458 15.2402 2.51178 14.5173 2.01296C13.7943 1.51414 12.9273 1.26715 12.0501 1.31008C10.8366 1.3508 9.64196 1.62223 8.53008 2.11001C4.41008 3.77001 1.23007 11.18 0.380074 13.35C0.180074 13.76 0.0800781 14 0.0800781 14H15.0801C13.3623 13.4197 11.9128 12.2368 11.0001 10.6701ZM6.75008 5.1L9.67007 8.02004C9.64515 8.3262 9.64515 8.6338 9.67007 8.93996L6.67007 11.94L6.75008 5.1ZM14.5901 3.1H13.6801C12.5228 3.35677 11.4886 4.00278 10.7501 4.93008V2.19997C11.1509 2.1117 11.5597 2.0649 11.9701 2.06008C12.4547 2.03729 12.9387 2.11718 13.3903 2.2947C13.8418 2.47222 14.2507 2.74325 14.5901 3.08999V3.1ZM8.73008 2.81008C9.22539 2.61343 9.73316 2.44962 10.2501 2.31997V5.74001L10.1601 5.90005C9.94304 6.36891 9.79807 6.86785 9.73008 7.38003L6.73008 4.38003V4.12002C7.31241 3.56392 7.98982 3.11688 8.73008 2.80007V2.81008ZM6.25008 4.65005V11.9101L3.25008 8.91006C4.07024 7.3685 5.07788 5.93426 6.25008 4.64004V4.65005ZM1.15008 13.26C1.68727 11.9222 2.30164 10.6166 2.99007 9.35L6.25008 12.61V13.26H1.15008ZM6.75008 13.26V12.61L9.81007 9.55007C9.92827 10.0592 10.1062 10.5526 10.3401 11.02C10.7909 11.8837 11.4136 12.646 12.1701 13.26H6.75008Z" fill="white"/>
</g>
<defs>
<clipPath id="clip0">
<rect width="16" height="16" fill="white"/>
</clipPath>
</defs>
</svg>
