<svg width="64" height="64" viewBox="0 0 64 64" fill="none" xmlns="http://www.w3.org/2000/svg">
<path d="M4 52.8118V12.1882L36.739 4L59 15.1351V49.8649L36.739 61L4 52.8118Z" fill="#333333"/>
<path opacity="0.5" d="M33 57L6 51.16V27.63C6 27.52 6.05997 27.45 6.08997 27.45C8.08997 27.45 10.9399 24.45 10.9399 24.45C12.3219 25.674 14.0911 27.1741 16.04 27.23C17.989 27.1681 19.8444 25.7756 21.17 24.45C23.2109 26.1752 24.33 27.35 27 27.23C28.5414 27.1607 30.3563 25.5337 31.4301 24.46C31.9231 24.8968 32.4371 25.2538 33 25.59V57ZM57 27.1C55 27.1 52.16 24.4399 52.16 24.4399C50.7397 25.6577 48.9596 27.1581 47.01 27.22C44.9154 27.1599 43.3999 25.7248 41.88 24.4399C40.6045 25.7177 38.814 26.9267 37 27.1899L37.05 58L57.05 49L57 27.1Z" fill="#4D4D4D"/>
<path opacity="0.5" d="M33 57L6 51.16V27.63C6 27.52 6.05997 27.45 6.08997 27.45C8.08997 27.45 10.9399 24.45 10.9399 24.45C12.3219 25.674 14.0911 27.1741 16.04 27.23C17.989 27.1681 19.8444 25.7756 21.17 24.45C23.2109 26.1752 24.33 27.35 27 27.23C28.5414 27.1607 30.3563 25.5337 31.4301 24.46C31.9231 24.8968 32.4371 25.2538 33 25.59V57ZM57 27.1C55 27.1 52.16 24.4399 52.16 24.4399C50.7397 25.6577 48.9596 27.1581 47.01 27.22C44.9154 27.1599 43.3999 25.7248 41.88 24.4399C40.6045 25.7177 38.814 26.9267 37 27.1899L37.05 58L57.05 49L57 27.1Z" fill="url(#paint0_linear)"/>
<path opacity="0.7" d="M33 35.88C31.29 35.81 29.56 34.83 27 31C21.06 36.23 16 34 12.79 29.12C10 32 8.42 32.7 6 33V51.16L33 57V35.88Z" fill="#808080"/>
<path d="M33 35.88C31.29 35.81 29.56 34.83 27 31C21.06 36.23 16 34 12.79 29.12C10 32 8.42 32.7 6 33V51.16L33 57V35.88Z" fill="url(#paint1_linear)"/>
<path d="M57 32C55.9 33.17 53.6699 34 51.4399 30C49.2199 35 45 36 42 30C42 30 40.33 35 37 36V58L57 49V32Z" fill="#4D4D4D"/>
<path opacity="0.8" d="M57 32C55.9 33.17 53.6699 34 51.4399 30C49.2199 35 45 36 42 30C42 30 40.33 35 37 36V58L57 49V32Z" fill="url(#paint2_linear)"/>
<path opacity="0.6" d="M60 14.5L37 3V7L57 16V49L37 58V62L60 50.5V14.5Z" fill="white"/>
<path d="M37 3L3 11.5V53.5L37 62V3ZM33 57L6 51.16V13.84L33 8V57Z" fill="white"/>
<defs>
<linearGradient id="paint0_linear" x1="31.5" y1="24.4199" x2="31.5" y2="58" gradientUnits="userSpaceOnUse">
<stop stop-color="white"/>
<stop offset="1" stop-color="#808080" stop-opacity="0"/>
</linearGradient>
<linearGradient id="paint1_linear" x1="19.5" y1="29.12" x2="19.5" y2="57" gradientUnits="userSpaceOnUse">
<stop stop-color="white"/>
<stop offset="1" stop-color="#C4C4C4" stop-opacity="0"/>
</linearGradient>
<linearGradient id="paint2_linear" x1="47" y1="30" x2="47" y2="58" gradientUnits="userSpaceOnUse">
<stop stop-color="white"/>
<stop offset="1" stop-color="#C4C4C4" stop-opacity="0"/>
</linearGradient>
</defs>
</svg>
