<svg width="16" height="16" viewBox="0 0 16 16" fill="none" xmlns="http://www.w3.org/2000/svg">
<g clip-path="url(#clip0)">
<path opacity="0.5" d="M0 6.40997C0 6.40997 -1.78814e-06 6.98997 1.67 6.98997C2.67 6.98997 3.95 5.50996 4.38 5.50996C5.1 5.50996 6.31 7.50996 8.21 7.50996C10.11 7.50996 11.32 5.50996 12.04 5.50996C12.49 5.50996 13.77 6.98997 14.75 6.98997C15.73 6.98997 15.99 6.40997 15.99 6.40997C15.8783 6.45663 15.7604 6.48694 15.64 6.49997C14.16 6.49997 12.04 4.20998 12.04 4.20998C12.04 4.20998 11.78 4.43997 11.4 4.73997C10.8806 5.15352 10.3288 5.52471 9.75 5.84998C9.61175 5.92993 9.46806 6.00009 9.32 6.05997C9.18346 6.12197 9.04319 6.17541 8.9 6.21997H8.81C8.44968 6.3397 8.06031 6.3397 7.7 6.21997H7.61C7.46681 6.17541 7.32654 6.12197 7.19 6.05997C7.04194 6.00009 6.89826 5.92993 6.76 5.84998C6.18415 5.51993 5.63273 5.14898 5.11 4.73997C4.73 4.43997 4.47 4.20998 4.47 4.20998C4.47 4.20998 2.35 6.49997 0.870003 6.49997C0.576936 6.52374 0.281995 6.49323 0 6.40997ZM0 2.30997C0 2.30997 -1.78814e-06 2.88997 1.67 2.88997C2.67 2.88997 3.95 1.39996 4.38 1.39996C5.1 1.39996 6.31 3.39996 8.21 3.39996C10.11 3.39996 11.32 1.39996 12.04 1.39996C12.49 1.39996 13.77 2.88997 14.75 2.88997C15.73 2.88997 15.99 2.30997 15.99 2.30997C15.8773 2.35165 15.7596 2.37854 15.64 2.38997C14.16 2.38997 12.04 0.0999756 12.04 0.0999756C12.04 0.0999756 11.78 0.329974 11.4 0.629974C10.8831 1.04688 10.331 1.41827 9.75 1.73997L9.32 1.93997C9.18361 2.00519 9.04335 2.06196 8.9 2.10997H8.81C8.44741 2.2147 8.06259 2.2147 7.7 2.10997H7.61C7.46665 2.06196 7.32639 2.00519 7.19 1.93997L6.76 1.73997C6.18196 1.41346 5.63029 1.04233 5.11 0.629974C4.73 0.329974 4.47 0.0999756 4.47 0.0999756C4.47 0.0999756 2.35 2.38997 0.870003 2.38997C0.577577 2.41125 0.28364 2.38422 0 2.30997Z" fill="white"/>
<path d="M0.779909 10.5999C2.25991 10.5999 4.37991 8.30994 4.37991 8.30994C4.37991 8.30994 4.63991 8.53995 5.01991 8.84995C5.54264 9.25895 6.09406 9.6299 6.66991 9.95995C6.80991 10.0399 6.94991 10.0999 7.09991 10.1699C7.23645 10.2319 7.37672 10.2854 7.51991 10.3299H7.60991C7.97022 10.4497 8.3596 10.4497 8.71991 10.3299H8.80991C8.95309 10.2854 9.09337 10.2319 9.22991 10.1699C9.37991 10.0999 9.51991 10.0399 9.65991 9.95995C10.2387 9.63468 10.7905 9.26349 11.3099 8.84995C11.6899 8.53995 11.9499 8.30994 11.9499 8.30994C11.9499 8.30994 14.0699 10.5999 15.5499 10.5999C15.6695 10.5885 15.7872 10.5616 15.8999 10.5199C15.8999 10.5199 15.6499 11.0999 14.6599 11.0999C13.6699 11.0999 12.3999 9.60994 11.9499 9.60994C11.2299 9.60994 10.0199 11.6099 8.11991 11.6099C6.21991 11.6099 5.00991 9.60994 4.28991 9.60994C3.85991 9.60994 2.55991 11.0999 1.57991 11.0999C-0.100088 11.0999 -0.0900865 10.5199 -0.0900865 10.5199C0.193554 10.5942 0.487483 10.6212 0.779909 10.5999ZM-9.01669e-05 14.5999C-9.01669e-05 14.5999 -9.19104e-05 15.1799 1.66991 15.1799C2.66991 15.1799 3.94991 13.6899 4.37991 13.6899C5.09991 13.6899 6.30991 15.6899 8.20991 15.6899C10.1099 15.6899 11.3199 13.6899 12.0399 13.6899C12.4899 13.6899 13.7699 15.1799 14.7499 15.1799C15.7299 15.1799 15.9899 14.5999 15.9899 14.5999C15.8772 14.6416 15.7595 14.6685 15.6399 14.6799C14.1599 14.6799 12.0399 12.3899 12.0399 12.3899C12.0399 12.3899 11.7799 12.6199 11.3999 12.9199C10.883 13.3368 10.3309 13.7082 9.74991 14.0299C9.61166 14.1099 9.46797 14.1801 9.31991 14.2399C9.18337 14.3019 9.0431 14.3554 8.89991 14.3999H8.80991C8.44959 14.5197 8.06022 14.5197 7.69991 14.3999H7.60991C7.46672 14.3554 7.32645 14.3019 7.18991 14.2399C7.04185 14.1801 6.89817 14.1099 6.75991 14.0299C6.14671 13.7341 5.55816 13.3897 4.99991 12.9999C4.61991 12.6999 4.35991 12.4699 4.35991 12.4699C4.35991 12.4699 2.23991 14.7599 0.759912 14.7599C0.501623 14.7536 0.245619 14.7098 -9.01669e-05 14.6299V14.5999Z" fill="white"/>
</g>
<defs>
<clipPath id="clip0">
<rect width="16" height="16" fill="white"/>
</clipPath>
</defs>
</svg>
